<svg xmlns="http://www.w3.org/2000/svg" viewBox="0 0 80 80" fill="none" stroke="#8E5F34" stroke-linecap="round" stroke-linejoin="round">
  <line x1="40" y1="8" x2="40" y2="17" stroke-width="1.8" />
  <line x1="36" y1="12" x2="44" y2="12" stroke-width="1.8" />
  <polygon points="40,17 24,33 56,33" stroke-width="1.6" fill="none" />
  <circle cx="40" cy="27" r="4.5" stroke-width="1.2" fill="none" />
  <path d="M40 29 C39 27 37 27 37 26 C37 25 39 25 40 26 C41 25 43 25 43 26 C43 27 41 27 40 29 Z" fill="#8E5F34" stroke="none" />
  <rect x="28" y="33" width="24" height="32" stroke-width="1.6" fill="none" />
  <path d="M36 65 L36 49 C36 45 44 45 44 49 L44 65" stroke-width="1.3" />
  <line x1="40" y1="46" x2="40" y2="65" stroke-width="1" />
  <line x1="24" y1="65" x2="56" y2="65" stroke-width="1.5" />
  <line x1="21" y1="68" x2="59" y2="68" stroke-width="1.5" />
  <rect x="16" y="42" width="12" height="23" stroke-width="1.3" fill="none" />
  <polygon points="14,42 22,35 30,42" stroke-width="1.3" fill="none" />
  <rect x="20" y="48" width="4" height="8" rx="2" stroke-width="1" />
  <rect x="52" y="42" width="12" height="23" stroke-width="1.3" fill="none" />
  <polygon points="50,42 58,35 66,42" stroke-width="1.3" fill="none" />
  <rect x="56" y="48" width="4" height="8" rx="2" stroke-width="1" />
</svg>
